<?xml version="1.0" standalone="yes"?>

<svg version="1.1" viewBox="0.0 0.0 854.0603674540682 419.748031496063" fill="none" stroke="none" stroke-linecap="square" stroke-miterlimit="10" xmlns="http://www.w3.org/2000/svg" xmlns:xlink="http://www.w3.org/1999/xlink"><clipPath id="p.0"><path d="m0 0l854.06036 0l0 419.74802l-854.06036 0l0 -419.74802z" clip-rule="nonzero"></path></clipPath><g clip-path="url(#p.0)"><path fill="#000000" fill-opacity="0.0" d="m0 0l854.06036 0l0 419.74802l-854.06036 0z" fill-rule="evenodd"></path><path fill="#3d85c6" d="m434.86877 68.09407l0 0c0 -9.19315 7.6851807 -16.645672 17.165344 -16.645672l0 0c4.5525513 0 8.91861 1.7537346 12.137756 4.8754044c3.2191162 3.1216698 5.027588 7.3555603 5.027588 11.7702675l0 0c0 9.193146 -7.6851807 16.645668 -17.165344 16.645668l0 0c-9.480164 0 -17.165344 -7.4525223 -17.165344 -16.645668z" fill-rule="evenodd"></path><path stroke="#000000" stroke-width="1.0" stroke-linejoin="round" stroke-linecap="butt" d="m434.86877 68.09407l0 0c0 -9.19315 7.6851807 -16.645672 17.165344 -16.645672l0 0c4.5525513 0 8.91861 1.7537346 12.137756 4.8754044c3.2191162 3.1216698 5.027588 7.3555603 5.027588 11.7702675l0 0c0 9.193146 -7.6851807 16.645668 -17.165344 16.645668l0 0c-9.480164 0 -17.165344 -7.4525223 -17.165344 -16.645668z" fill-rule="evenodd"></path><path fill="#3d85c6" d="m434.86877 115.70884l0 0c0 -9.193146 7.6851807 -16.645668 17.165344 -16.645668l0 0c4.5525513 0 8.91861 1.7537308 12.137756 4.8754044c3.2191162 3.121666 5.027588 7.3555603 5.027588 11.770264l0 0c0 9.193153 -7.6851807 16.645668 -17.165344 16.645668l0 0c-9.480164 0 -17.165344 -7.4525146 -17.165344 -16.645668z" fill-rule="evenodd"></path><path stroke="#000000" stroke-width="1.0" stroke-linejoin="round" stroke-linecap="butt" d="m434.86877 115.70884l0 0c0 -9.193146 7.6851807 -16.645668 17.165344 -16.645668l0 0c4.5525513 0 8.91861 1.7537308 12.137756 4.8754044c3.2191162 3.121666 5.027588 7.3555603 5.027588 11.770264l0 0c0 9.193153 -7.6851807 16.645668 -17.165344 16.645668l0 0c-9.480164 0 -17.165344 -7.4525146 -17.165344 -16.645668z" fill-rule="evenodd"></path><path fill="#3d85c6" d="m434.86877 163.32361l0 0c0 -9.193146 7.6851807 -16.64566 17.165344 -16.64566l0 0c4.5525513 0 8.91861 1.7537231 12.137756 4.8753967c3.2191162 3.1216736 5.027588 7.3555603 5.027588 11.770264l0 0c0 9.193146 -7.6851807 16.645676 -17.165344 16.645676l0 0c-9.480164 0 -17.165344 -7.45253 -17.165344 -16.645676z" fill-rule="evenodd"></path><path stroke="#000000" stroke-width="1.0" stroke-linejoin="round" stroke-linecap="butt" d="m434.86877 163.32361l0 0c0 -9.193146 7.6851807 -16.64566 17.165344 -16.64566l0 0c4.5525513 0 8.91861 1.7537231 12.137756 4.8753967c3.2191162 3.1216736 5.027588 7.3555603 5.027588 11.770264l0 0c0 9.193146 -7.6851807 16.645676 -17.165344 16.645676l0 0c-9.480164 0 -17.165344 -7.45253 -17.165344 -16.645676z" fill-rule="evenodd"></path><path fill="#cc4125" d="m503.87732 96.168144l0 0c0 -9.193153 7.6851807 -16.645676 17.165344 -16.645676l0 0c4.5525513 0 8.91864 1.7537384 12.137756 4.8754044c3.2191162 3.1216736 5.027588 7.3555603 5.027588 11.770271l0 0c0 9.193146 -7.6851807 16.645668 -17.165344 16.645668l0 0c-9.480164 0 -17.165344 -7.4525223 -17.165344 -16.645668z" fill-rule="evenodd"></path><path stroke="#000000" stroke-width="1.0" stroke-linejoin="round" stroke-linecap="butt" d="m503.87732 96.168144l0 0c0 -9.193153 7.6851807 -16.645676 17.165344 -16.645676l0 0c4.5525513 0 8.91864 1.7537384 12.137756 4.8754044c3.2191162 3.1216736 5.027588 7.3555603 5.027588 11.770271l0 0c0 9.193146 -7.6851807 16.645668 -17.165344 16.645668l0 0c-9.480164 0 -17.165344 -7.4525223 -17.165344 -16.645668z" fill-rule="evenodd"></path><path fill="#cc4125" d="m503.87732 145.43839l0 0c0 -9.193146 7.6851807 -16.64566 17.165344 -16.64566l0 0c4.5525513 0 8.91864 1.7537384 12.137756 4.8753967c3.2191162 3.1216736 5.027588 7.3555603 5.027588 11.770264l0 0c0 9.193161 -7.6851807 16.645676 -17.165344 16.645676l0 0c-9.480164 0 -17.165344 -7.4525146 -17.165344 -16.645676z" fill-rule="evenodd"></path><path stroke="#000000" stroke-width="1.0" stroke-linejoin="round" stroke-linecap="butt" d="m503.87732 145.43839l0 0c0 -9.193146 7.6851807 -16.64566 17.165344 -16.64566l0 0c4.5525513 0 8.91864 1.7537384 12.137756 4.8753967c3.2191162 3.1216736 5.027588 7.3555603 5.027588 11.770264l0 0c0 9.193161 -7.6851807 16.645676 -17.165344 16.645676l0 0c-9.480164 0 -17.165344 -7.4525146 -17.165344 -16.645676z" fill-rule="evenodd"></path><path fill="#38761d" d="m577.72534 70.16383l0 0c0 -9.193146 7.6851807 -16.645664 17.165344 -16.645664l0 0c4.5525513 0 8.91864 1.7537346 12.137756 4.8754005c3.2191162 3.1216698 5.027588 7.3555603 5.027588 11.770264l0 0c0 9.193153 -7.6851807 16.645676 -17.165344 16.645676l0 0c-9.480164 0 -17.165344 -7.4525223 -17.165344 -16.645676z" fill-rule="evenodd"></path><path stroke="#000000" stroke-width="1.0" stroke-linejoin="round" stroke-linecap="butt" d="m577.72534 70.16383l0 0c0 -9.193146 7.6851807 -16.645664 17.165344 -16.645664l0 0c4.5525513 0 8.91864 1.7537346 12.137756 4.8754005c3.2191162 3.1216698 5.027588 7.3555603 5.027588 11.770264l0 0c0 9.193153 -7.6851807 16.645676 -17.165344 16.645676l0 0c-9.480164 0 -17.165344 -7.4525223 -17.165344 -16.645676z" fill-rule="evenodd"></path><path fill="#38761d" d="m577.72534 116.74372l0 0c0 -9.193146 7.6851807 -16.645668 17.165344 -16.645668l0 0c4.5525513 0 8.91864 1.7537384 12.137756 4.8754044c3.2191162 3.1216736 5.027588 7.3555603 5.027588 11.770264l0 0c0 9.193153 -7.6851807 16.645668 -17.165344 16.645668l0 0c-9.480164 0 -17.165344 -7.4525146 -17.165344 -16.645668z" fill-rule="evenodd"></path><path stroke="#000000" stroke-width="1.0" stroke-linejoin="round" stroke-linecap="butt" d="m577.72534 116.74372l0 0c0 -9.193146 7.6851807 -16.645668 17.165344 -16.645668l0 0c4.5525513 0 8.91864 1.7537384 12.137756 4.8754044c3.2191162 3.1216736 5.027588 7.3555603 5.027588 11.770264l0 0c0 9.193153 -7.6851807 16.645668 -17.165344 16.645668l0 0c-9.480164 0 -17.165344 -7.4525146 -17.165344 -16.645668z" fill-rule="evenodd"></path><path fill="#38761d" d="m577.72534 163.32361l0 0c0 -9.193146 7.6851807 -16.64566 17.165344 -16.64566l0 0c4.5525513 0 8.91864 1.7537231 12.137756 4.8753967c3.2191162 3.1216736 5.027588 7.3555603 5.027588 11.770264l0 0c0 9.193146 -7.6851807 16.645676 -17.165344 16.645676l0 0c-9.480164 0 -17.165344 -7.45253 -17.165344 -16.645676z" fill-rule="evenodd"></path><path stroke="#000000" stroke-width="1.0" stroke-linejoin="round" stroke-linecap="butt" d="m577.72534 163.32361l0 0c0 -9.193146 7.6851807 -16.64566 17.165344 -16.64566l0 0c4.5525513 0 8.91864 1.7537231 12.137756 4.8753967c3.2191162 3.1216736 5.027588 7.3555603 5.027588 11.770264l0 0c0 9.193146 -7.6851807 16.645676 -17.165344 16.645676l0 0c-9.480164 0 -17.165344 -7.45253 -17.165344 -16.645676z" fill-rule="evenodd"></path><path fill="#000000" fill-opacity="0.0" d="m469.19946 68.09407l34.677185 28.062988" fill-rule="evenodd"></path><path stroke="#000000" stroke-width="1.0" stroke-linejoin="round" stroke-linecap="butt" d="m469.19946 68.09407l34.677185 28.062988" fill-rule="evenodd"></path><path fill="#000000" fill-opacity="0.0" d="m469.19946 68.09407l34.677185 77.354324" fill-rule="evenodd"></path><path stroke="#000000" stroke-width="1.0" stroke-linejoin="round" stroke-linecap="butt" d="m469.19946 68.09407l34.677185 77.354324" fill-rule="evenodd"></path><path fill="#000000" fill-opacity="0.0" d="m469.19946 115.70884l34.677185 29.732277" fill-rule="evenodd"></path><path stroke="#000000" stroke-width="1.0" stroke-linejoin="round" stroke-linecap="butt" d="m469.19946 115.70884l34.677185 29.732277" fill-rule="evenodd"></path><path fill="#000000" fill-opacity="0.0" d="m469.19946 115.70884l34.677185 -19.527557" fill-rule="evenodd"></path><path stroke="#000000" stroke-width="1.0" stroke-linejoin="round" stroke-linecap="butt" d="m469.19946 115.70884l34.677185 -19.527557" fill-rule="evenodd"></path><path fill="#000000" fill-opacity="0.0" d="m469.19946 163.32361l34.677185 -17.889755" fill-rule="evenodd"></path><path stroke="#000000" stroke-width="1.0" stroke-linejoin="round" stroke-linecap="butt" d="m469.19946 163.32361l34.677185 -17.889755" fill-rule="evenodd"></path><path fill="#000000" fill-opacity="0.0" d="m469.19946 163.32361l34.677185 -67.149605" fill-rule="evenodd"></path><path stroke="#000000" stroke-width="1.0" stroke-linejoin="round" stroke-linecap="butt" d="m469.19946 163.32361l34.677185 -67.149605" fill-rule="evenodd"></path><path fill="#000000" fill-opacity="0.0" d="m538.208 96.168144l39.527588 -26.015755" fill-rule="evenodd"></path><path stroke="#000000" stroke-width="1.0" stroke-linejoin="round" stroke-linecap="butt" d="m538.208 96.168144l39.527588 -26.015755" fill-rule="evenodd"></path><path fill="#000000" fill-opacity="0.0" d="m538.208 96.168144l39.527588 20.566925" fill-rule="evenodd"></path><path stroke="#000000" stroke-width="1.0" stroke-linejoin="round" stroke-linecap="butt" d="m538.208 96.168144l39.527588 20.566925" fill-rule="evenodd"></path><path fill="#000000" fill-opacity="0.0" d="m538.208 96.168144l39.527588 67.149605" fill-rule="evenodd"></path><path stroke="#000000" stroke-width="1.0" stroke-linejoin="round" stroke-linecap="butt" d="m538.208 96.168144l39.527588 67.149605" fill-rule="evenodd"></path><path fill="#000000" fill-opacity="0.0" d="m538.208 145.43839l39.527588 -28.69291" fill-rule="evenodd"></path><path stroke="#000000" stroke-width="1.0" stroke-linejoin="round" stroke-linecap="butt" d="m538.208 145.43839l39.527588 -28.69291" fill-rule="evenodd"></path><path fill="#000000" fill-opacity="0.0" d="m538.208 96.168144l0 0" fill-rule="evenodd"></path><path stroke="#000000" stroke-width="1.0" stroke-linejoin="round" stroke-linecap="butt" d="m538.208 96.168144l0 0" fill-rule="evenodd"></path><path fill="#000000" fill-opacity="0.0" d="m538.208 145.43839l39.527588 -75.27559" fill-rule="evenodd"></path><path stroke="#000000" stroke-width="1.0" stroke-linejoin="round" stroke-linecap="butt" d="m538.208 145.43839l39.527588 -75.27559" fill-rule="evenodd"></path><path fill="#000000" fill-opacity="0.0" d="m538.208 145.43839l39.527588 17.88977" fill-rule="evenodd"></path><path stroke="#000000" stroke-width="1.0" stroke-linejoin="round" stroke-linecap="butt" d="m538.208 145.43839l39.527588 17.88977" fill-rule="evenodd"></path><path fill="#3d85c6" d="m441.76498 237.63823l0 0c0 -9.193161 7.685211 -16.645676 17.165375 -16.645676l0 0c4.5525208 0 8.91861 1.7537384 12.137726 4.8753967c3.2191467 3.1216736 5.0276184 7.3555603 5.0276184 11.770279l0 0c0 9.193146 -7.6851807 16.64566 -17.165344 16.64566l0 0c-9.480164 0 -17.165375 -7.4525146 -17.165375 -16.64566z" fill-rule="evenodd"></path><path stroke="#000000" stroke-width="1.0" stroke-linejoin="round" stroke-linecap="butt" d="m441.76498 237.63823l0 0c0 -9.193161 7.685211 -16.645676 17.165375 -16.645676l0 0c4.5525208 0 8.91861 1.7537384 12.137726 4.8753967c3.2191467 3.1216736 5.0276184 7.3555603 5.0276184 11.770279l0 0c0 9.193146 -7.6851807 16.64566 -17.165344 16.64566l0 0c-9.480164 0 -17.165375 -7.4525146 -17.165375 -16.64566z" fill-rule="evenodd"></path><path fill="#3d85c6" d="m441.76498 285.253l0 0c0 -9.193146 7.685211 -16.64566 17.165375 -16.64566l0 0c4.5525208 0 8.91861 1.7537231 12.137726 4.8753967c3.2191467 3.1216736 5.0276184 7.3555603 5.0276184 11.770264l0 0c0 9.193146 -7.6851807 16.64566 -17.165344 16.64566l0 0c-9.480164 0 -17.165375 -7.4525146 -17.165375 -16.64566z" fill-rule="evenodd"></path><path stroke="#000000" stroke-width="1.0" stroke-linejoin="round" stroke-linecap="butt" d="m441.76498 285.253l0 0c0 -9.193146 7.685211 -16.64566 17.165375 -16.64566l0 0c4.5525208 0 8.91861 1.7537231 12.137726 4.8753967c3.2191467 3.1216736 5.0276184 7.3555603 5.0276184 11.770264l0 0c0 9.193146 -7.6851807 16.64566 -17.165344 16.64566l0 0c-9.480164 0 -17.165375 -7.4525146 -17.165375 -16.64566z" fill-rule="evenodd"></path><path fill="#3d85c6" d="m441.76498 332.86777l0 0c0 -9.193146 7.685211 -16.64566 17.165375 -16.64566l0 0c4.5525208 0 8.91861 1.7537231 12.137726 4.8753967c3.2191467 3.1216736 5.0276184 7.3555603 5.0276184 11.770264l0 0c0 9.193146 -7.6851807 16.64566 -17.165344 16.64566l0 0c-9.480164 0 -17.165375 -7.4525146 -17.165375 -16.64566z" fill-rule="evenodd"></path><path stroke="#000000" stroke-width="1.0" stroke-linejoin="round" stroke-linecap="butt" d="m441.76498 332.86777l0 0c0 -9.193146 7.685211 -16.64566 17.165375 -16.64566l0 0c4.5525208 0 8.91861 1.7537231 12.137726 4.8753967c3.2191467 3.1216736 5.0276184 7.3555603 5.0276184 11.770264l0 0c0 9.193146 -7.6851807 16.64566 -17.165344 16.64566l0 0c-9.480164 0 -17.165375 -7.4525146 -17.165375 -16.64566z" fill-rule="evenodd"></path><path fill="#cc4125" d="m510.77356 265.71228l0 0c0 -9.193146 7.6851807 -16.64566 17.165344 -16.64566l0 0c4.5525513 0 8.91864 1.7537384 12.137756 4.875412c3.2191162 3.1216583 5.027588 7.355545 5.027588 11.770248l0 0c0 9.193176 -7.6851807 16.64569 -17.165344 16.64569l0 0c-9.480164 0 -17.165344 -7.4525146 -17.165344 -16.64569z" fill-rule="evenodd"></path><path stroke="#000000" stroke-width="1.0" stroke-linejoin="round" stroke-linecap="butt" d="m510.77356 265.71228l0 0c0 -9.193146 7.6851807 -16.64566 17.165344 -16.64566l0 0c4.5525513 0 8.91864 1.7537384 12.137756 4.875412c3.2191162 3.1216583 5.027588 7.355545 5.027588 11.770248l0 0c0 9.193176 -7.6851807 16.64569 -17.165344 16.64569l0 0c-9.480164 0 -17.165344 -7.4525146 -17.165344 -16.64569z" fill-rule="evenodd"></path><path fill="#cc4125" d="m510.77356 314.98254l0 0c0 -9.193146 7.6851807 -16.64566 17.165344 -16.64566l0 0c4.5525513 0 8.91864 1.7537231 12.137756 4.8753967c3.2191162 3.1216736 5.027588 7.3555603 5.027588 11.770264l0 0c0 9.193146 -7.6851807 16.64566 -17.165344 16.64566l0 0c-9.480164 0 -17.165344 -7.4525146 -17.165344 -16.64566z" fill-rule="evenodd"></path><path stroke="#000000" stroke-width="1.0" stroke-linejoin="round" stroke-linecap="butt" d="m510.77356 314.98254l0 0c0 -9.193146 7.6851807 -16.64566 17.165344 -16.64566l0 0c4.5525513 0 8.91864 1.7537231 12.137756 4.8753967c3.2191162 3.1216736 5.027588 7.3555603 5.027588 11.770264l0 0c0 9.193146 -7.6851807 16.64566 -17.165344 16.64566l0 0c-9.480164 0 -17.165344 -7.4525146 -17.165344 -16.64566z" fill-rule="evenodd"></path><path fill="#38761d" d="m584.6216 239.708l0 0c0 -9.193146 7.6851807 -16.645676 17.165344 -16.645676l0 0c4.5525513 0 8.918579 1.7537384 12.137756 4.875412c3.2191162 3.1216583 5.027588 7.3555603 5.027588 11.770264l0 0c0 9.193146 -7.6851807 16.645676 -17.165344 16.645676l0 0c-9.480164 0 -17.165344 -7.45253 -17.165344 -16.645676z" fill-rule="evenodd"></path><path stroke="#000000" stroke-width="1.0" stroke-linejoin="round" stroke-linecap="butt" d="m584.6216 239.708l0 0c0 -9.193146 7.6851807 -16.645676 17.165344 -16.645676l0 0c4.5525513 0 8.918579 1.7537384 12.137756 4.875412c3.2191162 3.1216583 5.027588 7.3555603 5.027588 11.770264l0 0c0 9.193146 -7.6851807 16.645676 -17.165344 16.645676l0 0c-9.480164 0 -17.165344 -7.45253 -17.165344 -16.645676z" fill-rule="evenodd"></path><path fill="#38761d" d="m584.6216 286.28787l0 0c0 -9.193146 7.6851807 -16.64566 17.165344 -16.64566l0 0c4.5525513 0 8.918579 1.7537231 12.137756 4.8753967c3.2191162 3.1216736 5.027588 7.3555603 5.027588 11.770264l0 0c0 9.193146 -7.6851807 16.64566 -17.165344 16.64566l0 0c-9.480164 0 -17.165344 -7.4525146 -17.165344 -16.64566z" fill-rule="evenodd"></path><path stroke="#000000" stroke-width="1.0" stroke-linejoin="round" stroke-linecap="butt" d="m584.6216 286.28787l0 0c0 -9.193146 7.6851807 -16.64566 17.165344 -16.64566l0 0c4.5525513 0 8.918579 1.7537231 12.137756 4.8753967c3.2191162 3.1216736 5.027588 7.3555603 5.027588 11.770264l0 0c0 9.193146 -7.6851807 16.64566 -17.165344 16.64566l0 0c-9.480164 0 -17.165344 -7.4525146 -17.165344 -16.64566z" fill-rule="evenodd"></path><path fill="#38761d" d="m584.6216 332.86777l0 0c0 -9.193146 7.6851807 -16.64566 17.165344 -16.64566l0 0c4.5525513 0 8.918579 1.7537231 12.137756 4.8753967c3.2191162 3.1216736 5.027588 7.3555603 5.027588 11.770264l0 0c0 9.193146 -7.6851807 16.64566 -17.165344 16.64566l0 0c-9.480164 0 -17.165344 -7.4525146 -17.165344 -16.64566z" fill-rule="evenodd"></path><path stroke="#000000" stroke-width="1.0" stroke-linejoin="round" stroke-linecap="butt" d="m584.6216 332.86777l0 0c0 -9.193146 7.6851807 -16.64566 17.165344 -16.64566l0 0c4.5525513 0 8.918579 1.7537231 12.137756 4.8753967c3.2191162 3.1216736 5.027588 7.3555603 5.027588 11.770264l0 0c0 9.193146 -7.6851807 16.64566 -17.165344 16.64566l0 0c-9.480164 0 -17.165344 -7.4525146 -17.165344 -16.64566z" fill-rule="evenodd"></path><path fill="#000000" fill-opacity="0.0" d="m476.0957 237.63823l34.677155 28.062973" fill-rule="evenodd"></path><path stroke="#000000" stroke-width="1.0" stroke-linejoin="round" stroke-linecap="butt" d="m476.0957 237.63823l34.677155 28.062973" fill-rule="evenodd"></path><path fill="#000000" fill-opacity="0.0" d="m476.0957 237.63823l34.677155 77.354324" fill-rule="evenodd"></path><path stroke="#000000" stroke-width="1.0" stroke-linejoin="round" stroke-linecap="butt" d="m476.0957 237.63823l34.677155 77.354324" fill-rule="evenodd"></path><path fill="#000000" fill-opacity="0.0" d="m476.0957 285.253l34.677155 29.7323" fill-rule="evenodd"></path><path stroke="#000000" stroke-width="1.0" stroke-linejoin="round" stroke-linecap="butt" d="m476.0957 285.253l34.677155 29.7323" fill-rule="evenodd"></path><path fill="#000000" fill-opacity="0.0" d="m476.0957 285.253l34.677155 -19.527557" fill-rule="evenodd"></path><path stroke="#000000" stroke-width="1.0" stroke-linejoin="round" stroke-linecap="butt" d="m476.0957 285.253l34.677155 -19.527557" fill-rule="evenodd"></path><path fill="#000000" fill-opacity="0.0" d="m476.0957 332.86777l34.677155 -17.88977" fill-rule="evenodd"></path><path stroke="#000000" stroke-width="1.0" stroke-linejoin="round" stroke-linecap="butt" d="m476.0957 332.86777l34.677155 -17.88977" fill-rule="evenodd"></path><path fill="#000000" fill-opacity="0.0" d="m476.0957 332.86777l34.677155 -67.1496" fill-rule="evenodd"></path><path stroke="#000000" stroke-width="1.0" stroke-linejoin="round" stroke-linecap="butt" d="m476.0957 332.86777l34.677155 -67.1496" fill-rule="evenodd"></path><path fill="#000000" fill-opacity="0.0" d="m545.10425 265.71228l39.527588 -26.015732" fill-rule="evenodd"></path><path stroke="#000000" stroke-width="1.0" stroke-linejoin="round" stroke-linecap="butt" d="m545.10425 265.71228l39.527588 -26.015732" fill-rule="evenodd"></path><path fill="#000000" fill-opacity="0.0" d="m545.10425 265.71228l39.527588 20.566956" fill-rule="evenodd"></path><path stroke="#000000" stroke-width="1.0" stroke-linejoin="round" stroke-linecap="butt" d="m545.10425 265.71228l39.527588 20.566956" fill-rule="evenodd"></path><path fill="#000000" fill-opacity="0.0" d="m545.10425 265.71228l39.527588 67.14963" fill-rule="evenodd"></path><path stroke="#000000" stroke-width="1.0" stroke-linejoin="round" stroke-linecap="butt" d="m545.10425 265.71228l39.527588 67.14963" fill-rule="evenodd"></path><path fill="#000000" fill-opacity="0.0" d="m545.10425 314.98254l39.527588 -28.692902" fill-rule="evenodd"></path><path stroke="#000000" stroke-width="1.0" stroke-linejoin="round" stroke-linecap="butt" d="m545.10425 314.98254l39.527588 -28.692902" fill-rule="evenodd"></path><path fill="#000000" fill-opacity="0.0" d="m545.10425 265.71228l0 0" fill-rule="evenodd"></path><path stroke="#000000" stroke-width="1.0" stroke-linejoin="round" stroke-linecap="butt" d="m545.10425 265.71228l0 0" fill-rule="evenodd"></path><path fill="#000000" fill-opacity="0.0" d="m545.10425 314.98254l39.527588 -75.27559" fill-rule="evenodd"></path><path stroke="#000000" stroke-width="1.0" stroke-linejoin="round" stroke-linecap="butt" d="m545.10425 314.98254l39.527588 -75.27559" fill-rule="evenodd"></path><path fill="#000000" fill-opacity="0.0" d="m545.10425 314.98254l39.527588 17.88977" fill-rule="evenodd"></path><path stroke="#000000" stroke-width="1.0" stroke-linejoin="round" stroke-linecap="butt" d="m545.10425 314.98254l39.527588 17.88977" fill-rule="evenodd"></path><path fill="#000000" fill-opacity="0.0" d="m310.59985 144.09314l0 0" fill-rule="evenodd"></path><path stroke="#000000" stroke-width="1.0" stroke-linejoin="round" stroke-linecap="butt" d="m310.59985 144.09314l0 0" fill-rule="evenodd"></path><path fill="#000000" fill-opacity="0.0" d="m761.61945 174.29613l-118.77167 -78.11023" fill-rule="evenodd"></path><path stroke="#000000" stroke-width="3.0" stroke-linejoin="round" stroke-linecap="butt" d="m761.61945 174.29614l-103.73248 -68.21972" fill-rule="evenodd"></path><path fill="#000000" stroke="#000000" stroke-width="3.0" stroke-linecap="butt" d="m660.60974 101.9363l-14.097656 -3.3405762l8.6521 11.620819z" fill-rule="evenodd"></path><path fill="#000000" fill-opacity="0.0" d="m761.61945 174.29613l-99.811035 94.55119" fill-rule="evenodd"></path><path stroke="#000000" stroke-width="3.0" stroke-linejoin="round" stroke-linecap="butt" d="m761.61945 174.29614l-86.74347 82.17224" fill-rule="evenodd"></path><path fill="#000000" stroke="#000000" stroke-width="3.0" stroke-linecap="butt" d="m671.4682 252.87102l-6.475891 12.960159l13.291443 -5.765442z" fill-rule="evenodd"></path><path fill="#000000" fill-opacity="0.0" d="m761.61945 152.24889l102.58264 0l0 44.094482l-102.58264 0z" fill-rule="evenodd"></path><path fill="#000000" d="m793.9264 176.42175l2.25 -0.21875q0.203125 1.140625 0.828125 1.671875q0.625 0.53125 1.671875 0.53125q1.125 0 1.6875 -0.46875q0.5625 -0.484375 0.5625 -1.109375q0 -0.40625 -0.234375 -0.6875q-0.234375 -0.296875 -0.828125 -0.5q-0.40625 -0.140625 -1.859375 -0.5q-1.859375 -0.46875 -2.609375 -1.140625q-1.046875 -0.9375 -1.046875 -2.296875q0 -0.875 0.484375 -1.640625q0.5 -0.765625 1.4375 -1.15625q0.9375 -0.40625 2.25 -0.40625q2.15625 0 3.25 0.953125q1.09375 0.9375 1.140625 2.515625l-2.3125 0.109375q-0.140625 -0.890625 -0.640625 -1.265625q-0.484375 -0.390625 -1.453125 -0.390625q-1.015625 0 -1.578125 0.40625q-0.375 0.265625 -0.375 0.71875q0 0.40625 0.34375 0.6875q0.4375 0.375 2.125 0.78125q1.6875 0.390625 2.5 0.8125q0.8125 0.421875 1.265625 1.171875q0.453125 0.734375 0.453125 1.8125q0 0.984375 -0.546875 1.84375q-0.546875 0.859375 -1.546875 1.28125q-1.0 0.421875 -2.484375 0.421875q-2.171875 0 -3.34375 -1.0q-1.15625 -1.015625 -1.390625 -2.9375zm15.046875 -4.5625l0 1.75l-1.5 0l0 3.34375q0 1.015625 0.046875 1.1875q0.046875 0.15625 0.1875 0.265625q0.15625 0.109375 0.375 0.109375q0.3125 0 0.890625 -0.203125l0.1875 1.703125q-0.765625 0.328125 -1.734375 0.328125q-0.59375 0 -1.078125 -0.203125q-0.46875 -0.203125 -0.703125 -0.515625q-0.21875 -0.3125 -0.296875 -0.859375q-0.078125 -0.375 -0.078125 -1.546875l0 -3.609375l-1.0 0l0 -1.75l1.0 0l0 -1.65625l2.203125 -1.28125l0 2.9375l1.5 0zm3.171875 2.53125l-2.0 -0.359375q0.34375 -1.203125 1.15625 -1.78125q0.828125 -0.578125 2.4375 -0.578125q1.46875 0 2.1875 0.34375q0.71875 0.34375 1.015625 0.890625q0.296875 0.53125 0.296875 1.953125l-0.03125 2.5625q0 1.09375 0.109375 1.625q0.109375 0.515625 0.390625 1.109375l-2.171875 0q-0.078125 -0.21875 -0.203125 -0.65625q-0.0625 -0.1875 -0.078125 -0.25q-0.5625 0.546875 -1.203125 0.828125q-0.640625 0.265625 -1.375 0.265625q-1.28125 0 -2.015625 -0.6875q-0.734375 -0.703125 -0.734375 -1.765625q0 -0.703125 0.328125 -1.25q0.34375 -0.5625 0.9375 -0.84375q0.609375 -0.296875 1.75 -0.515625q1.546875 -0.296875 2.140625 -0.546875l0 -0.21875q0 -0.625 -0.3125 -0.890625q-0.3125 -0.28125 -1.1875 -0.28125q-0.578125 0 -0.90625 0.234375q-0.328125 0.234375 -0.53125 0.8125zm2.9375 1.78125q-0.421875 0.140625 -1.34375 0.34375q-0.90625 0.1875 -1.1875 0.375q-0.4375 0.296875 -0.4375 0.765625q0 0.46875 0.34375 0.8125q0.34375 0.328125 0.875 0.328125q0.59375 0 1.140625 -0.390625q0.390625 -0.296875 0.515625 -0.734375q0.09375 -0.28125 0.09375 -1.0625l0 -0.4375zm8.1171875 -4.3125l0 1.75l-1.5 0l0 3.34375q0 1.015625 0.046875 1.1875q0.046875 0.15625 0.1875 0.265625q0.15625 0.109375 0.375 0.109375q0.3125 0 0.890625 -0.203125l0.1875 1.703125q-0.765625 0.328125 -1.734375 0.328125q-0.59375 0 -1.078125 -0.203125q-0.46875 -0.203125 -0.703125 -0.515625q-0.21875 -0.3125 -0.296875 -0.859375q-0.078125 -0.375 -0.078125 -1.546875l0 -3.609375l-1.0 0l0 -1.75l1.0 0l0 -1.65625l2.203125 -1.28125l0 2.9375l1.5 0zm6.328125 5.65625l2.1875 0.359375q-0.421875 1.203125 -1.328125 1.84375q-0.90625 0.625 -2.28125 0.625q-2.15625 0 -3.203125 -1.421875q-0.8125 -1.125 -0.8125 -2.859375q0 -2.0625 1.078125 -3.21875q1.078125 -1.171875 2.71875 -1.171875q1.859375 0 2.921875 1.21875q1.078125 1.21875 1.03125 3.75l-5.5 0q0.015625 0.96875 0.515625 1.515625q0.515625 0.546875 1.28125 0.546875q0.515625 0 0.859375 -0.28125q0.359375 -0.28125 0.53125 -0.90625zm0.125 -2.21875q-0.015625 -0.953125 -0.484375 -1.453125q-0.46875 -0.5 -1.140625 -0.5q-0.71875 0 -1.1875 0.53125q-0.46875 0.515625 -0.46875 1.421875l3.28125 0z" fill-rule="nonzero"></path><path fill="#000000" fill-opacity="0.0" d="m291.33948 79.52253l83.71652 0l0 39.622047l-83.71652 0z" fill-rule="evenodd"></path><path fill="#000000" d="m342.21463 120.61003q-0.796875 2.71875 -2.5 4.28125q-1.703125 1.546875 -4.140625 1.546875q-1.5625 0 -2.15625 -0.890625q-0.59375 -0.90625 -0.59375 -2.578125q0 -0.8125 0.1875 -1.890625l-0.078125 0q-1.109375 2.25 -3.03125 3.8125q-1.921875 1.546875 -4.203125 1.546875q-2.875 0 -3.328125 -3.0l-0.078125 0q-0.3125 1.4375 -0.3125 2.28125q0 1.515625 0.828125 3.359375q0.84375 1.84375 0.84375 2.609375q0 2.71875 -2.46875 2.71875q-2.078125 0 -2.078125 -3.125q0 -0.359375 0.59375 -2.625q0.59375 -2.25 1.359375 -4.96875q0.765625 -2.71875 0.875 -3.203125l3.640625 -12.515625l4.796875 0l-3.46875 12.1875q-0.4375 1.921875 -0.4375 2.640625q0 0.71875 0.46875 1.0625q0.484375 0.34375 1.203125 0.34375q1.40625 0 2.703125 -1.640625q1.296875 -1.640625 1.96875 -3.28125q0.6875 -1.640625 1.046875 -3.078125l2.40625 -8.234375l4.796875 0l-3.359375 11.71875q-0.765625 2.71875 -0.765625 3.46875q0 1.0 1.0 1.0q1.203125 0 2.09375 -1.4375q0.90625 -1.4375 1.1875 -2.5625l1.0 0.453125z" fill-rule="nonzero"></path><path fill="#000000" fill-opacity="0.0" d="m308.7249 282.33533l74.078766 0l0 50.551178l-74.078766 0z" fill-rule="evenodd"></path><path fill="#000000" d="m326.7249 329.17282q-2.28125 0 -4.109375 -0.6875q-1.8125 -0.703125 -2.890625 -1.78125q-1.078125 -1.09375 -1.78125 -2.5q-0.703125 -1.421875 -0.96875 -2.765625q-0.25 -1.34375 -0.25 -2.703125q0 -2.40625 0.640625 -4.28125q0.640625 -1.875 1.640625 -3.0q1.0 -1.125 2.359375 -1.859375q1.359375 -0.734375 2.671875 -1.015625q1.328125 -0.28125 2.6875 -0.28125q0.40625 0 1.046875 0.078125q0.640625 0.078125 0.875 0.078125l10.765625 0l0 4.6875l-4.25 0q1.5625 2.359375 1.5625 5.59375q0 4.59375 -2.640625 7.515625q-2.640625 2.921875 -7.359375 2.921875zm0 -16.5625q-1.765625 0 -2.90625 1.09375q-1.140625 1.078125 -1.5 2.359375q-0.359375 1.265625 -0.359375 2.671875q0 2.71875 1.171875 4.40625q1.1875 1.671875 3.59375 1.671875q0.796875 0 1.53125 -0.234375q0.75 -0.25 1.53125 -0.84375q0.78125 -0.59375 1.234375 -1.875q0.46875 -1.28125 0.46875 -3.125q0 -3.3125 -1.40625 -4.71875q-1.40625 -1.40625 -3.359375 -1.40625z" fill-rule="nonzero"></path><path fill="#000000" fill-opacity="0.0" d="m413.03116 309.81793l-126.55118 -74.58267" fill-rule="evenodd"></path><path stroke="#000000" stroke-width="3.0" stroke-linejoin="round" stroke-linecap="butt" d="m413.03116 309.81793l-111.043884 -65.44351" fill-rule="evenodd"></path><path fill="#000000" stroke="#000000" stroke-width="3.0" stroke-linecap="butt" d="m304.50317 240.10545l-14.244843 -2.6434326l9.213013 11.1813965z" fill-rule="evenodd"></path><path fill="#000000" fill-opacity="0.0" d="m397.57935 106.861496l-112.06299 72.06299" fill-rule="evenodd"></path><path stroke="#000000" stroke-width="3.0" stroke-linejoin="round" stroke-linecap="butt" d="m397.57935 106.861496l-96.92316 62.327194" fill-rule="evenodd"></path><path fill="#000000" stroke="#000000" stroke-width="3.0" stroke-linecap="butt" d="m297.97604 165.02087l-8.7708435 11.531479l14.131134 -3.1958313z" fill-rule="evenodd"></path><path fill="#000000" fill-opacity="0.0" d="m451.76596 0l142.9921 0l0 28.094488l-142.9921 0z" fill-rule="evenodd"></path><path fill="#000000" d="m460.9066 23.36l0 -11.453125l3.453125 0l2.078125 7.8125l2.0625 -7.8125l3.46875 0l0 11.453125l-2.15625 0l0 -9.015625l-2.265625 9.015625l-2.234375 0l-2.265625 -9.015625l0 9.015625l-2.140625 0zm18.140625 -2.640625l2.1875 0.359375q-0.421875 1.203125 -1.328125 1.84375q-0.90625 0.625 -2.28125 0.625q-2.15625 0 -3.203125 -1.421875q-0.8125 -1.125 -0.8125 -2.859375q0 -2.0625 1.078125 -3.21875q1.078125 -1.171875 2.71875 -1.171875q1.859375 0 2.921875 1.21875q1.078125 1.21875 1.03125 3.75l-5.5 0q0.015625 0.96875 0.515625 1.515625q0.515625 0.546875 1.28125 0.546875q0.515625 0 0.859375 -0.28125q0.359375 -0.28125 0.53125 -0.90625zm0.125 -2.21875q-0.015625 -0.953125 -0.484375 -1.453125q-0.46875 -0.5 -1.140625 -0.5q-0.71875 0 -1.1875 0.53125q-0.46875 0.515625 -0.46875 1.421875l3.28125 0zm5.6171875 -0.90625l-2.0 -0.359375q0.34375 -1.203125 1.15625 -1.78125q0.828125 -0.578125 2.4375 -0.578125q1.46875 0 2.1875 0.34375q0.71875 0.34375 1.015625 0.890625q0.296875 0.53125 0.296875 1.953125l-0.03125 2.5625q0 1.09375 0.109375 1.625q0.109375 0.515625 0.390625 1.109375l-2.171875 0q-0.078125 -0.21875 -0.203125 -0.65625q-0.0625 -0.1875 -0.078125 -0.25q-0.5625 0.546875 -1.203125 0.828125q-0.640625 0.265625 -1.375 0.265625q-1.28125 0 -2.015625 -0.6875q-0.734375 -0.703125 -0.734375 -1.765625q0 -0.703125 0.328125 -1.25q0.34375 -0.5625 0.9375 -0.84375q0.609375 -0.296875 1.75 -0.515625q1.546875 -0.296875 2.140625 -0.546875l0 -0.21875q0 -0.625 -0.3125 -0.890625q-0.3125 -0.28125 -1.1875 -0.28125q-0.578125 0 -0.90625 0.234375q-0.328125 0.234375 -0.53125 0.8125zm2.9375 1.78125q-0.421875 0.140625 -1.34375 0.34375q-0.90625 0.1875 -1.1875 0.375q-0.4375 0.296875 -0.4375 0.765625q0 0.46875 0.34375 0.8125q0.34375 0.328125 0.875 0.328125q0.59375 0 1.140625 -0.390625q0.390625 -0.296875 0.515625 -0.734375q0.09375 -0.28125 0.09375 -1.0625l0 -0.4375zm11.8671875 3.984375l-2.203125 0l0 -4.234375q0 -1.34375 -0.140625 -1.734375q-0.140625 -0.40625 -0.453125 -0.625q-0.3125 -0.21875 -0.765625 -0.21875q-0.5625 0 -1.015625 0.3125q-0.453125 0.3125 -0.625 0.828125q-0.171875 0.515625 -0.171875 1.90625l0 3.765625l-2.1875 0l0 -8.296875l2.03125 0l0 1.21875q1.09375 -1.40625 2.734375 -1.40625q0.734375 0 1.328125 0.265625q0.609375 0.25 0.90625 0.65625q0.3125 0.40625 0.4375 0.921875q0.125 0.515625 0.125 1.484375l0 5.15625zm6.703125 0l0 -11.453125l2.25 0l4.6874695 7.640625l0 -7.640625l2.15625 0l0 11.453125l-2.328125 0l-4.6093445 -7.46875l0 7.46875l-2.15625 0zm16.320282 -2.640625l2.1875 0.359375q-0.421875 1.203125 -1.328125 1.84375q-0.90625 0.625 -2.28125 0.625q-2.15625 0 -3.203125 -1.421875q-0.8125 -1.125 -0.8125 -2.859375q0 -2.0625 1.078125 -3.21875q1.078125 -1.171875 2.71875 -1.171875q1.859375 0 2.921875 1.21875q1.078125 1.21875 1.03125 3.75l-5.5 0q0.015625 0.96875 0.515625 1.515625q0.515625 0.546875 1.28125 0.546875q0.515625 0 0.859375 -0.28125q0.359375 -0.28125 0.53125 -0.90625zm0.125 -2.21875q-0.015625 -0.953125 -0.484375 -1.453125q-0.46875 -0.5 -1.140625 -0.5q-0.71875 0 -1.1875 0.53125q-0.46875 0.515625 -0.46875 1.421875l3.28125 0zm7.7734375 -3.4375l0 1.75l-1.5 0l0 3.34375q0 1.015625 0.046875 1.1875q0.046875 0.15625 0.1875 0.265625q0.15625 0.109375 0.375 0.109375q0.3125 0 0.890625 -0.203125l0.1875 1.703125q-0.765625 0.328125 -1.734375 0.328125q-0.59375 0 -1.078125 -0.203125q-0.46875 -0.203125 -0.703125 -0.515625q-0.21875 -0.3125 -0.296875 -0.859375q-0.078125 -0.375 -0.078125 -1.546875l0 -3.609375l-1.0 0l0 -1.75l1.0 0l0 -1.65625l2.203125 -1.28125l0 2.9375l1.5 0zm3.078125 8.296875l-2.625 -8.296875l2.125 0l1.5625 5.4375l1.421875 -5.4375l2.125 0l1.375 5.4375l1.59375 -5.4375l2.15625 0l-2.65625 8.296875l-2.109375 0l-1.4375 -5.34375l-1.40625 5.34375l-2.125 0zm10.3828125 -4.265625q0 -1.09375 0.53125 -2.109375q0.546875 -1.03125 1.53125 -1.5625q1.0 -0.546875 2.21875 -0.546875q1.875 0 3.078125 1.21875q1.203125 1.21875 1.203125 3.09375q0 1.875 -1.21875 3.125q-1.203125 1.234375 -3.046875 1.234375q-1.140625 0 -2.1875 -0.515625q-1.03125 -0.515625 -1.578125 -1.515625q-0.53125 -1.0 -0.53125 -2.421875zm2.25 0.109375q0 1.234375 0.578125 1.890625q0.59375 0.65625 1.453125 0.65625q0.859375 0 1.4375 -0.65625q0.59375 -0.65625 0.59375 -1.90625q0 -1.21875 -0.59375 -1.875q-0.578125 -0.65625 -1.4375 -0.65625q-0.859375 0 -1.453125 0.65625q-0.578125 0.65625 -0.578125 1.890625zm10.1328125 4.15625l-2.1875 0l0 -8.296875l2.03125 0l0 1.171875q0.53125 -0.828125 0.9375 -1.09375q0.421875 -0.265625 0.953125 -0.265625q0.75 0 1.453125 0.40625l-0.6875 1.921875q-0.546875 -0.359375 -1.03125 -0.359375q-0.453125 0 -0.78125 0.25q-0.3125 0.25 -0.5 0.921875q-0.1875 0.65625 -0.1875 2.78125l0 2.5625zm4.0546875 0l0 -11.453125l2.1875 0l0 6.078125l2.578125 -2.921875l2.703125 0l-2.84375 3.03125l3.046875 5.265625l-2.375 0l-2.078125 -3.734375l-1.03125 1.078125l0 2.65625l-2.1875 0z" fill-rule="nonzero"></path><path fill="#000000" fill-opacity="0.0" d="m449.54016 379.0656l142.99213 0l0 28.094482l-142.99213 0z" fill-rule="evenodd"></path><path fill="#000000" d="m458.1183 398.69125l2.25 -0.21875q0.203125 1.140625 0.828125 1.671875q0.625 0.53125 1.671875 0.53125q1.125 0 1.6875 -0.46875q0.5625 -0.484375 0.5625 -1.109375q0 -0.40625 -0.234375 -0.6875q-0.234375 -0.296875 -0.828125 -0.5q-0.40625 -0.140625 -1.859375 -0.5q-1.859375 -0.46875 -2.609375 -1.140625q-1.046875 -0.9375 -1.046875 -2.296875q0 -0.875 0.484375 -1.640625q0.5 -0.765625 1.4375 -1.15625q0.9375 -0.40625 2.25 -0.40625q2.15625 0 3.25 0.953125q1.09375 0.9375 1.140625 2.515625l-2.3125 0.109375q-0.140625 -0.890625 -0.640625 -1.265625q-0.484375 -0.390625 -1.453125 -0.390625q-1.015625 0 -1.578125 0.40625q-0.375 0.265625 -0.375 0.71875q0 0.40625 0.34375 0.6875q0.4375 0.375 2.125 0.78125q1.6875 0.390625 2.5 0.8125q0.8125 0.421875 1.265625 1.171875q0.453125 0.734375 0.453125 1.8125q0 0.984375 -0.546875 1.84375q-0.546875 0.859375 -1.546875 1.28125q-1.0 0.421875 -2.484375 0.421875q-2.171875 0 -3.34375 -1.0q-1.15625 -1.015625 -1.390625 -2.9375zm15.046875 -4.5625l0 1.75l-1.5 0l0 3.34375q0 1.015625 0.046875 1.1875q0.046875 0.15625 0.1875 0.265625q0.15625 0.109375 0.375 0.109375q0.3125 0 0.890625 -0.203125l0.1875 1.703125q-0.765625 0.328125 -1.734375 0.328125q-0.59375 0 -1.078125 -0.203125q-0.46875 -0.203125 -0.703125 -0.515625q-0.21875 -0.3125 -0.296875 -0.859375q-0.078125 -0.375 -0.078125 -1.546875l0 -3.609375l-1.0 0l0 -1.75l1.0 0l0 -1.65625l2.203125 -1.28125l0 2.9375l1.5 0zm9.140625 8.296875l-2.046875 0l0 -1.21875q-0.5 0.703125 -1.203125 1.0625q-0.6875 0.34375 -1.390625 0.34375q-1.421875 0 -2.453125 -1.15625q-1.015625 -1.15625 -1.015625 -3.21875q0 -2.109375 0.984375 -3.203125q1.0 -1.09375 2.515625 -1.09375q1.390625 0 2.40625 1.15625l0 -4.125l2.203125 0l0 11.453125zm-5.859375 -4.328125q0 1.328125 0.359375 1.921875q0.53125 0.859375 1.484375 0.859375q0.765625 0 1.296875 -0.640625q0.53125 -0.65625 0.53125 -1.9375q0 -1.421875 -0.515625 -2.046875q-0.515625 -0.640625 -1.328125 -0.640625q-0.78125 0 -1.3125 0.625q-0.515625 0.625 -0.515625 1.859375zm20.015625 4.328125l-2.203125 0l0 -4.234375q0 -1.34375 -0.140625 -1.734375q-0.140625 -0.40625 -0.453125 -0.625q-0.3125 -0.21875 -0.765625 -0.21875q-0.5625 0 -1.015625 0.3125q-0.453125 0.3125 -0.625 0.828125q-0.171875 0.515625 -0.171875 1.90625l0 3.765625l-2.1875 0l0 -8.296875l2.03125 0l0 1.21875q1.09375 -1.40625 2.734375 -1.40625q0.734375 0 1.328125 0.265625q0.609375 0.25 0.90625 0.65625q0.3125 0.40625 0.4375 0.921875q0.125 0.515625 0.125 1.484375l0 5.15625zm7.0234375 -2.640625l2.1875 0.359375q-0.421875 1.203125 -1.328125 1.84375q-0.90625 0.625 -2.28125 0.625q-2.15625 0 -3.203125 -1.421875q-0.8125 -1.125 -0.8125 -2.859375q0 -2.0625 1.078125 -3.21875q1.078125 -1.171875 2.71875 -1.171875q1.859375 0 2.921875 1.21875q1.078125 1.21875 1.03125 3.75l-5.5 0q0.015625 0.96875 0.515625 1.515625q0.515625 0.546875 1.28125 0.546875q0.515625 0 0.859375 -0.28125q0.359375 -0.28125 0.53125 -0.90625zm0.125 -2.21875q-0.015625 -0.953125 -0.484375 -1.453125q-0.46875 -0.5 -1.140625 -0.5q-0.71875 0 -1.1875 0.53125q-0.46875 0.515625 -0.46875 1.421875l3.28125 0zm7.7734375 -3.4375l0 1.75l-1.5 0l0 3.34375q0 1.015625 0.046875 1.1875q0.046875 0.15625 0.1875 0.265625q0.15625 0.109375 0.375 0.109375q0.3125 0 0.890625 -0.203125l0.1875 1.703125q-0.765625 0.328125 -1.734375 0.328125q-0.59375 0 -1.078125 -0.203125q-0.46875 -0.203125 -0.703125 -0.515625q-0.21875 -0.3125 -0.296875 -0.859375q-0.078125 -0.375 -0.078125 -1.546875l0 -3.609375l-1.0 0l0 -1.75l1.0 0l0 -1.65625l2.203125 -1.28125l0 2.9375l1.5 0zm3.078125 8.296875l-2.625 -8.296875l2.125 0l1.5625 5.4375l1.421875 -5.4375l2.125 0l1.375 5.4375l1.59375 -5.4375l2.15625 0l-2.65625 8.296875l-2.109375 0l-1.4375 -5.34375l-1.40625 5.34375l-2.125 0zm10.3828125 -4.265625q0 -1.09375 0.53125 -2.109375q0.546875 -1.03125 1.53125 -1.5625q1.0 -0.546875 2.21875 -0.546875q1.875 0 3.078125 1.21875q1.203125 1.21875 1.203125 3.09375q0 1.875 -1.21875 3.125q-1.203125 1.234375 -3.046875 1.234375q-1.140625 0 -2.1875 -0.515625q-1.03125 -0.515625 -1.578125 -1.515625q-0.53125 -1.0 -0.53125 -2.421875zm2.25 0.109375q0 1.234375 0.578125 1.890625q0.59375 0.65625 1.453125 0.65625q0.859375 0 1.4375 -0.65625q0.59375 -0.65625 0.59375 -1.90625q0 -1.21875 -0.59375 -1.875q-0.578125 -0.65625 -1.4375 -0.65625q-0.859375 0 -1.453125 0.65625q-0.578125 0.65625 -0.578125 1.890625zm10.1328125 4.15625l-2.1875 0l0 -8.296875l2.03125 0l0 1.171875q0.53125 -0.828125 0.9375 -1.09375q0.421875 -0.265625 0.953125 -0.265625q0.75 0 1.453125 0.40625l-0.6875 1.921875q-0.546875 -0.359375 -1.03125 -0.359375q-0.453125 0 -0.78125 0.25q-0.3125 0.25 -0.5 0.921875q-0.1875 0.65625 -0.1875 2.78125l0 2.5625zm4.0546875 0l0 -11.453125l2.1875 0l0 6.078125l2.578125 -2.921875l2.703125 0l-2.84375 3.03125l3.046875 5.265625l-2.375 0l-2.078125 -3.734375l-1.03125 1.078125l0 2.65625l-2.1875 0z" fill-rule="nonzero"></path><path fill="#000000" fill-opacity="0.0" d="m8.734908 178.92711l239.49606 0l0 61.5748l-239.49606 0z" fill-rule="evenodd"></path><path fill="#000000" d="m56.14406 226.62398q-0.375 0 -1.34375 -0.859375q-0.875 -0.8125 -1.3125 -1.4375q-1.875 1.015625 -3.296875 1.53125q-1.421875 0.53125 -2.390625 0.53125q-4.5625 0 -6.65625 -2.59375q-1.96875 -2.421875 -1.96875 -7.421875q0 -4.71875 3.25 -8.078125q3.25 -3.359375 7.765625 -3.359375q1.703125 0 3.8125 0.875q2.65625 1.09375 2.65625 2.640625q0 0.53125 -0.390625 0.9375q-0.203125 0.734375 -0.3125 2.4375q-0.109375 1.703125 -0.125 4.359375q-0.015625 2.421875 0.328125 3.828125q0.203125 0.859375 1.234375 3.4375q0.140625 0.34375 0.453125 1.03125l0.109375 0.328125q0 0.796875 -0.546875 1.296875q-0.546875 0.515625 -1.265625 0.515625zm-4.0625 -13.578125q0 -0.84375 0.109375 -1.828125q0.109375 -0.984375 0.328125 -2.109375q-0.734375 -0.359375 -1.25 -0.53125q-0.515625 -0.1875 -0.828125 -0.1875q-3.03125 0 -5.234375 2.46875q-2.1875 2.46875 -2.1875 5.703125q0 3.203125 1.125 4.8125q1.140625 1.59375 3.40625 1.59375q1.875 0 3.1875 -0.6875q0.703125 -0.375 1.96875 -1.484375q-0.625 -5.171875 -0.625 -7.75z" fill-rule="nonzero"></path><path fill="#000000" d="m71.460464 214.4521l0 -4.015625q2.0625 -2.34375 5.421875 -2.34375q1.171875 0 2.453125 0.34375q1.296875 0.34375 3.6875 1.359375q1.34375 0.5625 2.015625 0.75q0.671875 0.171875 1.359375 0.171875q1.265625 0 2.625 -0.765625q1.359375 -0.765625 2.421875 -1.90625l0 4.140625q-1.25 1.171875 -2.53125 1.703125q-1.28125 0.515625 -2.890625 0.515625q-1.171875 0 -2.234375 -0.265625q-1.0625 -0.28125 -3.375 -1.3125q-2.3125 -1.03125 -3.859375 -1.03125q-1.25 0 -2.359375 0.53125q-1.09375 0.53125 -2.734375 2.125z" fill-rule="nonzero"></path><path fill="#000000" d="m123.397964 196.68648l-5.984375 28.640625l-3.78125 0l-10.15625 -22.5l-4.84375 23.34375q-0.734375 3.453125 -1.75 5.03125q-1.5625 2.421875 -4.46875 2.421875q-1.390625 0 -3.359375 -0.5l0.625 -3.015625q1.203125 0.34375 2.140625 0.34375q1.5 0 2.28125 -1.640625q0.421875 -0.90625 0.9375 -3.28125l6.03125 -28.84375l3.703125 0l10.203125 22.421875l4.6875 -22.421875l3.734375 0z" fill-rule="nonzero"></path><path fill="#000000" d="m131.36281 233.74898q-2.90625 -3.671875 -4.921875 -8.59375q-2.015625 -4.921875 -2.015625 -10.203125q0 -4.640625 1.5 -8.90625q1.765625 -4.9375 5.4375 -9.84375l2.515625 0q-2.359375 4.0625 -3.125 5.796875q-1.1875 2.703125 -1.875 5.625q-0.84375 3.65625 -0.84375 7.34375q0 9.40625 5.84375 18.78125l-2.515625 0z" fill-rule="nonzero"></path><path fill="#000000" d="m156.12062 220.0146q-0.796875 2.71875 -2.5 4.28125q-1.703125 1.546875 -4.140625 1.546875q-1.5625 0 -2.15625 -0.890625q-0.59375 -0.90625 -0.59375 -2.578125q0 -0.8125 0.1875 -1.890625l-0.078125 0q-1.109375 2.25 -3.03125 3.8125q-1.921875 1.546875 -4.203125 1.546875q-2.875 0 -3.328125 -3.0l-0.078125 0q-0.3125 1.4375 -0.3125 2.28125q0 1.515625 0.828125 3.359375q0.84375 1.84375 0.84375 2.609375q0 2.71875 -2.46875 2.71875q-2.078125 0 -2.078125 -3.125q0 -0.359375 0.59375 -2.625q0.59375 -2.25 1.359375 -4.96875q0.765625 -2.71875 0.875 -3.203125l3.640625 -12.515625l4.796875 0l-3.46875 12.1875q-0.4375 1.921875 -0.4375 2.640625q0 0.71875 0.46875 1.0625q0.484375 0.34375 1.203125 0.34375q1.40625 0 2.703125 -1.640625q1.296875 -1.640625 1.96875 -3.28125q0.6875 -1.640625 1.046875 -3.078125l2.40625 -8.234375l4.796875 0l-3.359375 11.71875q-0.765625 2.71875 -0.765625 3.46875q0 1.0 1.0 1.0q1.203125 0 2.09375 -1.4375q0.90625 -1.4375 1.1875 -2.5625l1.0 0.453125z" fill-rule="nonzero"></path><path fill="#000000" d="m162.44623 225.3271l0 -4.0l4.0 0l0 4.0q0 2.203125 -0.78125 3.5625q-0.78125 1.359375 -2.484375 2.109375l-0.96875 -1.515625q1.109375 -0.484375 1.625 -1.4375q0.53125 -0.9375 0.59375 -2.71875l-1.984375 0z" fill-rule="nonzero"></path><path fill="#000000" d="m191.11029 225.7646q-2.28125 0 -4.109375 -0.6875q-1.8125 -0.703125 -2.890625 -1.78125q-1.078125 -1.09375 -1.78125 -2.5q-0.703125 -1.421875 -0.96875 -2.765625q-0.25 -1.34375 -0.25 -2.703125q0 -2.40625 0.640625 -4.28125q0.640625 -1.875 1.640625 -3.0q1.0 -1.125 2.359375 -1.859375q1.359375 -0.734375 2.671875 -1.015625q1.328125 -0.28125 2.6875 -0.28125q0.40625 0 1.046875 0.078125q0.640625 0.078125 0.875 0.078125l10.765625 0l0 4.6875l-4.25 0q1.5625 2.359375 1.5625 5.59375q0 4.59375 -2.640625 7.515625q-2.640625 2.921875 -7.359375 2.921875zm0 -16.5625q-1.765625 0 -2.90625 1.09375q-1.140625 1.078125 -1.5 2.359375q-0.359375 1.265625 -0.359375 2.671875q0 2.71875 1.171875 4.40625q1.1875 1.671875 3.59375 1.671875q0.796875 0 1.53125 -0.234375q0.75 -0.25 1.53125 -0.84375q0.78125 -0.59375 1.234375 -1.875q0.46875 -1.28125 0.46875 -3.125q0 -3.3125 -1.40625 -4.71875q-1.40625 -1.40625 -3.359375 -1.40625z" fill-rule="nonzero"></path><path fill="#000000" d="m210.40776 233.74898l-2.515625 0q5.84375 -9.375 5.84375 -18.78125q0 -3.671875 -0.84375 -7.28125q-0.65625 -2.921875 -1.859375 -5.625q-0.75 -1.75 -3.140625 -5.859375l2.515625 0q3.671875 4.90625 5.4375 9.84375q1.5 4.265625 1.5 8.90625q0 5.28125 -2.03125 10.203125q-2.015625 4.921875 -4.90625 8.59375z" fill-rule="nonzero"></path></g></svg>

